<?xml version="1.0" standalone="no"?>
<!DOCTYPE svg PUBLIC "-//W3C//DTD SVG 20010904//EN"
 "http://www.w3.org/TR/2001/REC-SVG-20010904/DTD/svg10.dtd">
<svg version="1.0" xmlns="http://www.w3.org/2000/svg"
 width="900.000000pt" height="771.000000pt" viewBox="0 0 900.000000 771.000000"
 preserveAspectRatio="xMidYMid meet">
<metadata>
Created by potrace 1.10, written by Peter Selinger 2001-2011
</metadata>
<g transform="translate(0.000000,771.000000) scale(0.100000,-0.100000)"
fill="#42248a" stroke="none">
<path d="M4215 7137 c-12 -12 -30 -27 -40 -33 -19 -11 -19 -13 -3 -30 9 -11
18 -32 20 -49 2 -21 7 -29 18 -25 8 2 33 4 55 5 37 0 40 3 43 30 2 17 8 36 14
42 13 16 3 43 -15 43 -8 0 -22 9 -32 20 -23 26 -35 25 -60 -3z"/>
<path d="M5495 7019 c-27 -28 -34 -30 -72 -25 -23 3 -45 1 -48 -4 -3 -5 3 -27
14 -49 19 -37 20 -42 6 -82 -19 -52 -9 -66 35 -51 35 13 54 8 93 -25 34 -28
47 -23 47 18 0 41 15 66 50 84 40 21 38 41 -7 62 -29 14 -40 27 -49 58 -14 50
-32 54 -69 14z"/>
<path d="M4623 6858 c-6 -7 -23 -35 -38 -63 -103 -187 -142 -243 -224 -323
-47 -46 -105 -95 -129 -109 -62 -37 -166 -73 -208 -73 -34 0 -35 1 -29 29 5
24 2 30 -15 36 -31 10 -50 -11 -43 -47 l6 -31 -86 6 c-110 9 -115 11 -119 55
-2 30 -7 38 -26 40 -17 3 -25 -2 -29 -18 -5 -18 -11 -21 -36 -16 -28 6 -113
55 -140 80 -54 51 -240 206 -249 206 -11 0 -5 -123 13 -235 29 -193 -22 -404
-112 -461 -25 -15 -39 -33 -44 -53 -8 -38 -48 -71 -86 -71 -19 0 -34 -9 -47
-28 -34 -47 -108 -67 -242 -66 -158 2 -182 11 -463 164 -43 23 -81 39 -84 36
-5 -5 20 -79 77 -226 48 -123 60 -186 60 -307 -1 -83 -5 -125 -15 -143 -8 -14
-14 -35 -15 -48 0 -26 -37 -112 -47 -112 -4 0 -16 9 -28 20 -25 24 -51 18 -61
-13 -8 -24 21 -50 47 -42 65 21 -86 -137 -179 -188 -53 -29 -77 -28 -87 4 -14
42 -60 5 -49 -38 7 -27 -18 -33 -183 -42 -73 -4 -137 -11 -143 -17 -6 -6 1
-25 20 -54 16 -24 32 -56 35 -71 3 -15 17 -37 31 -50 31 -29 54 -71 54 -97 0
-21 -18 -32 -53 -32 -22 0 -107 -26 -177 -53 -159 -61 -287 -156 -496 -369
-265 -268 -332 -381 -406 -680 -21 -85 -23 -115 -22 -338 1 -252 7 -311 57
-500 43 -161 103 -317 169 -439 17 -31 36 -65 42 -76 65 -118 222 -298 319
-364 155 -105 314 -139 459 -96 121 35 202 90 334 229 70 73 109 106 124 106
13 0 55 -24 94 -53 143 -108 268 -197 276 -197 5 0 22 11 38 25 17 14 37 25
46 25 20 0 20 -29 1 -54 -20 -26 -19 -28 11 -61 24 -26 26 -34 22 -106 -3 -82
-6 -89 -34 -93 -25 -4 -30 -26 -6 -26 15 0 22 -9 27 -30 4 -16 12 -30 20 -30
7 0 45 14 84 32 l71 31 25 -23 c20 -19 27 -21 40 -10 8 7 15 21 15 31 0 27 37
34 175 33 97 0 133 -5 188 -23 56 -19 68 -27 73 -49 3 -15 7 -33 10 -39 4 -16
38 -17 65 -2 24 12 45 1 115 -64 49 -45 114 -128 114 -145 0 -6 -12 -12 -27
-14 -22 -2 -29 -9 -31 -31 -3 -26 -1 -28 25 -25 20 2 29 9 31 26 5 33 21 23
49 -28 18 -34 23 -54 18 -82 -4 -31 -1 -41 19 -60 14 -13 29 -39 34 -58 7 -30
12 -35 35 -32 19 2 27 -2 27 -12 0 -20 19 -31 33 -17 7 7 6 16 -6 29 -15 16
-15 20 -2 40 9 11 29 31 46 43 30 21 31 21 65 3 30 -16 36 -17 44 -4 5 8 6 26
3 41 -4 23 0 30 25 43 17 9 48 16 68 16 26 0 46 7 63 24 54 50 242 70 371 41
96 -23 96 -22 76 -43 -20 -23 -21 -46 -2 -61 22 -18 56 3 56 34 0 33 19 32 88
-6 84 -47 129 -83 208 -167 43 -46 75 -72 82 -68 7 4 12 32 12 64 1 67 29 198
58 263 11 25 33 57 50 71 17 14 35 42 41 63 12 46 37 65 73 58 34 -7 58 11 58
43 0 36 34 64 76 64 20 0 46 8 61 19 28 23 124 47 148 38 9 -4 21 -20 26 -36
18 -51 58 -51 85 0 8 16 18 29 22 29 36 -1 119 -34 148 -60 25 -21 42 -29 55
-25 13 5 34 -2 60 -19 43 -29 46 -37 24 -56 -21 -18 -19 -38 6 -45 15 -5 25
-1 36 15 14 20 16 20 39 6 35 -24 43 -20 46 27 2 32 8 44 26 52 33 14 38 43
12 67 -18 17 -20 27 -15 62 8 48 38 120 54 130 6 4 11 18 11 31 0 34 31 95 48
95 7 0 23 -5 34 -11 17 -9 24 -7 41 10 l21 21 -22 30 c-27 36 -23 46 45 111
66 63 128 109 146 109 8 0 18 -11 21 -24 7 -29 31 -40 57 -26 22 12 24 32 7
59 -6 10 -9 25 -6 33 7 17 76 40 84 27 11 -19 51 -8 79 21 23 24 38 30 74 31
68 2 106 13 105 29 -1 8 -24 45 -51 81 -54 71 -103 165 -103 197 0 26 21 33
51 16 33 -18 49 -17 74 6 12 11 57 31 102 44 44 13 109 36 144 50 57 23 65 24
86 11 31 -21 43 -19 43 8 0 31 22 49 90 78 170 71 311 182 361 285 28 57 32
75 32 147 0 97 -19 142 -91 219 -45 48 -46 50 -27 64 11 8 39 20 62 25 53 14
70 33 130 149 27 52 61 113 74 135 14 22 29 47 33 55 4 8 12 24 19 35 33 56
204 340 219 363 9 15 23 37 30 49 143 240 363 558 560 806 43 54 78 105 78
113 0 17 -238 18 -705 4 -341 -10 -398 -19 -600 -93 -83 -30 -176 -63 -207
-73 -38 -12 -60 -25 -64 -37 -4 -12 -9 -16 -15 -10 -7 7 -2 42 13 97 l23 87
-21 17 c-12 9 -24 25 -27 35 -9 23 -20 21 -32 -5 -12 -27 -68 -35 -268 -37
l-127 -1 -11 28 c-12 29 -8 156 4 169 5 4 11 2 15 -4 7 -11 26 -16 50 -14 6 0
12 12 12 26 0 25 -6 29 -49 25 -23 -2 -24 0 -17 49 8 63 41 140 66 158 11 8
18 24 18 41 -1 15 15 59 36 96 58 110 53 116 -69 75 -48 -16 -96 -29 -105 -29
-9 0 -32 -7 -49 -16 -20 -10 -61 -17 -104 -18 l-72 -1 0 30 c0 27 -3 30 -30
30 -25 0 -31 -5 -35 -30 -5 -29 -7 -30 -55 -27 -67 5 -110 25 -127 59 -11 22
-21 28 -48 29 -54 2 -56 3 -84 25 l-27 22 27 28 c27 28 27 29 9 49 -23 25 -33
25 -61 -1 l-21 -20 -27 31 c-29 35 -32 56 -11 84 19 25 3 54 -32 58 -44 5 -58
45 -61 184 -2 77 2 162 12 228 20 132 21 206 3 206 -7 0 -37 -25 -67 -55 -34
-35 -63 -55 -77 -55 -14 0 -23 -6 -23 -15 0 -8 -17 -33 -37 -56 -31 -35 -41
-40 -72 -37 -35 3 -36 2 -39 -33 -4 -42 -40 -69 -94 -69 -24 0 -40 -8 -59 -29
-19 -22 -42 -32 -96 -45 -93 -21 -143 -20 -231 3 -82 21 -102 34 -102 66 0 12
-8 29 -18 38 -15 14 -23 15 -50 5 -29 -11 -34 -10 -62 17 -35 34 -37 45 -10
68 17 14 18 21 10 37 -11 21 -44 27 -55 10 -13 -22 -36 -8 -55 35 -15 33 -18
50 -11 64 8 14 5 23 -13 40 -14 13 -30 48 -40 89 -61 240 -59 235 -72 239 -6
2 -16 -2 -21 -9z m-34 -644 c61 -102 190 -216 311 -272 118 -55 197 -72 340
-72 130 0 199 13 323 60 32 12 64 20 71 17 7 -3 18 -26 25 -51 55 -219 268
-452 490 -536 75 -29 181 -51 279 -58 l87 -7 -2 -30 c-1 -16 -3 -89 -3 -162
-1 -97 -5 -133 -14 -136 -7 -3 -70 -9 -139 -12 l-127 -8 -8 24 c-5 13 -6 36
-1 51 l8 28 -131 0 c-124 0 -136 2 -212 32 -45 17 -99 43 -121 57 -41 25 -161
141 -182 176 -48 79 -80 173 -89 258 -3 37 -10 70 -15 73 -5 3 -23 -6 -40 -21
-30 -24 -59 -40 -139 -73 -47 -19 -247 -41 -285 -30 -16 4 -42 8 -56 8 -15 0
-40 7 -55 15 -16 8 -37 15 -46 15 -10 0 -18 4 -18 10 0 5 -17 18 -38 29 -44
22 -153 127 -176 169 -8 15 -28 53 -44 84 l-29 56 -26 -30 c-15 -16 -27 -33
-27 -37 0 -3 -25 -24 -55 -45 -30 -22 -55 -43 -55 -47 0 -3 -21 -16 -47 -28
-27 -12 -55 -26 -63 -31 -54 -34 -115 -48 -232 -57 -102 -7 -208 16 -318 70
-47 23 -88 43 -91 45 -4 2 -9 -10 -12 -25 -16 -83 -29 -131 -42 -155 -8 -14
-15 -33 -15 -42 0 -9 -7 -28 -16 -41 -9 -14 -14 -31 -11 -39 4 -10 1 -13 -7
-10 -7 3 -21 -8 -31 -23 -61 -97 -222 -204 -330 -218 -119 -16 -281 -5 -320
21 -33 24 -38 17 -30 -48 22 -199 -8 -349 -94 -468 -17 -24 -31 -48 -31 -54 0
-6 -22 -23 -48 -39 -26 -15 -85 -52 -132 -81 -47 -30 -93 -55 -102 -55 -9 -1
-19 -5 -23 -10 -3 -5 -30 -13 -61 -17 -59 -7 -57 -3 -38 -62 3 -10 -4 -29 -16
-45 l-21 -26 -57 38 c-69 47 -119 72 -192 97 -72 24 -76 27 -93 79 -19 54 -10
69 53 85 72 19 205 85 269 134 128 99 225 241 277 404 19 59 26 109 31 215 l6
139 31 -6 c17 -3 81 -9 141 -12 131 -7 244 15 360 71 205 98 371 304 419 519
8 34 18 33 151 -13 110 -39 236 -53 367 -40 178 17 337 83 472 196 50 42 69
42 95 -3z m-24 -566 c2 -7 6 -29 9 -49 4 -21 19 -50 36 -68 17 -17 30 -37 30
-44 0 -8 19 -31 43 -53 23 -21 49 -50 57 -63 11 -16 30 -26 63 -32 26 -5 68
-14 95 -20 26 -6 79 -10 117 -10 39 1 88 1 109 1 25 0 48 7 60 19 12 10 44 30
71 44 28 14 60 37 72 51 42 48 69 23 61 -55 -2 -26 -8 -35 -25 -37 -13 -2 -23
-8 -23 -14 0 -6 9 -8 21 -5 23 6 30 -6 34 -56 2 -18 3 -37 4 -42 1 -6 15 -25
31 -43 17 -18 30 -40 30 -48 0 -19 134 -154 153 -154 7 0 22 -9 32 -20 16 -18
17 -20 1 -26 -10 -4 -50 -4 -89 -1 -57 4 -76 2 -90 -11 -10 -9 -39 -19 -65
-23 -26 -4 -61 -13 -79 -20 -18 -7 -35 -10 -39 -7 -12 12 6 58 22 58 12 0 15
6 10 25 -3 14 -9 37 -12 53 -12 53 -58 66 -130 36 -41 -17 -155 -36 -213 -35
-19 0 -55 -9 -80 -21 -25 -12 -73 -25 -106 -29 -133 -18 -181 -28 -210 -43
-16 -9 -42 -16 -56 -16 -15 0 -32 -6 -38 -14 -6 -7 -24 -16 -39 -19 -15 -3
-35 -9 -44 -12 -13 -5 -18 -2 -18 8 0 9 -10 17 -22 19 -16 2 -24 12 -29 37 -4
18 -13 37 -21 42 -23 15 -63 10 -81 -11 -13 -15 -29 -20 -68 -20 -45 0 -51 2
-46 19 10 41 -28 66 -53 36 -11 -13 -10 -20 1 -41 17 -33 -1 -47 -53 -38 -28
4 -46 0 -72 -15 -21 -13 -50 -21 -80 -21 -45 0 -47 1 -44 28 3 23 -1 27 -22
27 -23 0 -25 -4 -23 -37 3 -41 -18 -55 -63 -44 -15 4 -39 -1 -64 -14 -21 -11
-58 -20 -81 -20 -36 0 -41 2 -36 20 6 23 -24 45 -39 30 -18 -17 -120 -50 -154
-50 -20 0 -41 -5 -48 -12 -6 -6 -30 -11 -52 -10 -24 1 -52 -5 -67 -16 -32 -20
-106 -41 -148 -41 -26 0 -28 1 -9 9 30 12 36 36 19 77 -20 48 -19 83 5 113 27
34 25 47 -11 65 -24 13 -30 22 -27 43 5 41 49 42 103 3 39 -28 45 -29 79 -19
36 11 78 6 137 -17 10 -4 29 4 47 20 18 15 47 31 66 36 32 9 146 92 155 112 2
5 23 31 47 58 27 31 44 59 44 75 0 46 18 66 52 59 25 -6 29 -4 26 12 -2 10
-13 19 -26 21 -20 3 -22 9 -22 72 0 66 1 68 23 62 38 -10 86 -42 92 -63 5 -14
16 -19 45 -19 22 0 69 -10 105 -21 57 -19 73 -20 127 -12 37 6 70 7 80 2 27
-14 48 -11 81 14 18 12 52 31 77 43 27 12 81 57 130 107 84 84 107 99 115 75z
m3945 -778 c0 -6 -22 -38 -48 -73 -49 -62 -98 -132 -227 -322 -64 -95 -387
-625 -441 -724 -14 -25 -41 -73 -59 -106 -19 -33 -39 -69 -45 -80 -6 -11 -23
-42 -39 -70 l-29 -50 -178 -3 c-98 -1 -184 0 -191 2 -11 5 4 54 51 161 8 17
35 84 61 150 47 121 51 131 79 195 8 19 31 76 51 125 20 50 40 99 45 110 5 11
19 45 30 75 11 30 25 64 30 75 24 52 50 114 50 119 0 2 14 34 30 69 17 36 30
68 30 70 0 3 14 36 31 74 17 37 37 84 46 103 8 19 22 49 31 67 l16 32 111 4
c288 8 565 6 565 -3z m-3400 -18 c0 -9 -7 -49 -15 -87 -8 -39 -15 -95 -15
-125 0 -30 -5 -75 -11 -100 -6 -25 -14 -85 -19 -135 -10 -105 -25 -230 -45
-372 -8 -56 -15 -126 -15 -155 0 -29 -5 -72 -10 -96 -6 -23 -14 -86 -19 -140
-16 -167 -31 -304 -42 -392 -6 -47 -15 -137 -20 -200 -5 -63 -15 -162 -22
-220 l-12 -104 -45 -12 c-25 -6 -67 -16 -95 -21 -27 -6 -75 -18 -105 -27 -30
-9 -80 -21 -110 -27 -30 -6 -61 -15 -67 -21 -7 -6 -19 -8 -26 -5 -10 4 -11 18
-5 63 4 33 14 129 22 214 8 85 18 175 22 200 3 25 10 113 14 195 14 256 30
496 41 603 6 56 15 189 19 295 5 105 14 276 21 380 13 183 14 187 35 187 13 0
35 5 51 11 15 7 57 18 93 25 36 7 94 20 130 29 36 8 97 20 135 26 39 6 74 15
80 20 15 15 35 10 35 -9z m1923 -28 c-2 -21 -9 -56 -17 -78 -8 -23 -22 -68
-31 -101 -50 -183 -46 -178 -316 -469 -36 -39 -91 -100 -121 -136 -30 -36 -66
-78 -81 -95 -33 -39 -91 -108 -142 -170 -22 -27 -54 -65 -70 -84 -17 -20 -60
-74 -95 -121 -35 -47 -67 -87 -70 -90 -30 -25 -140 -183 -140 -200 0 -22 2
-22 88 -17 48 3 168 10 267 16 99 6 208 12 243 15 l62 4 0 -45 c0 -24 -5 -74
-10 -111 -6 -37 -14 -112 -18 -167 l-7 -100 -150 -7 c-266 -11 -489 -27 -525
-38 -19 -5 -60 -10 -90 -10 -30 0 -73 -5 -95 -10 -22 -6 -74 -14 -115 -20 -98
-12 -189 -28 -273 -47 -38 -8 -71 -12 -74 -10 -2 3 -7 49 -9 104 -3 54 -9 122
-14 152 -14 76 -12 160 3 176 6 7 32 43 57 80 25 36 66 96 92 133 26 37 53 75
60 86 7 10 56 74 108 143 52 69 118 155 145 193 28 37 69 92 93 121 24 30 67
83 95 119 29 35 70 84 93 110 22 25 58 67 80 95 21 27 51 63 66 80 30 32 33
42 19 64 -6 10 -19 12 -42 7 -19 -4 -86 -11 -149 -17 -110 -9 -153 -15 -285
-40 -104 -20 -170 -27 -180 -18 -6 5 -8 48 -3 121 3 62 8 155 9 207 2 55 7 94
13 96 64 16 144 27 260 35 77 6 167 15 200 20 34 5 93 10 131 10 39 0 126 7
195 15 69 8 181 15 250 16 69 0 204 6 300 13 96 7 180 12 185 11 6 -1 9 -19 8
-41z m-2888 -132 c-2 -37 -8 -265 -14 -507 -6 -242 -15 -523 -20 -625 -6 -102
-13 -250 -17 -330 -6 -150 -26 -283 -50 -328 -8 -15 -14 -33 -14 -41 0 -41
-108 -210 -180 -280 -129 -126 -293 -199 -470 -208 -125 -7 -223 30 -304 113
-73 75 -105 181 -136 449 -6 44 -14 100 -20 125 -10 45 -26 172 -40 310 -4 41
-12 113 -18 160 -25 190 -55 483 -76 745 -7 94 -17 178 -21 187 -8 20 23 37
120 63 33 10 80 23 105 30 25 7 70 20 100 29 122 35 214 56 221 49 3 -5 12
-240 18 -523 14 -592 29 -1020 40 -1135 12 -124 48 -175 126 -175 72 0 119 52
141 158 17 80 19 544 4 907 -5 127 -10 358 -11 515 -1 271 -1 285 17 288 11 1
37 7 59 11 96 22 207 44 385 79 25 4 48 7 52 5 4 -2 5 -34 3 -71z m-1365 -17
c0 -8 -4 -15 -10 -15 -5 0 -10 7 -10 15 0 8 5 15 10 15 6 0 10 -7 10 -15z
m-853 -339 c204 -44 364 -218 451 -491 88 -274 97 -331 96 -616 -1 -143 -6
-249 -12 -270 -6 -19 -13 -54 -14 -79 l-3 -45 92 -60 c51 -33 137 -89 193
-124 93 -59 115 -83 94 -104 -10 -10 -54 -120 -54 -135 0 -7 -4 -20 -10 -30
-10 -17 -65 -161 -91 -236 -15 -42 -31 -54 -51 -37 -7 6 -42 33 -78 59 -36 27
-108 81 -161 120 -58 44 -102 70 -111 67 -8 -3 -35 -36 -59 -73 -74 -114 -202
-237 -298 -286 -91 -48 -234 -61 -327 -30 -119 40 -271 175 -353 314 -61 102
-119 218 -126 251 -4 16 -11 31 -16 34 -5 4 -9 12 -9 20 0 8 -5 26 -12 42 -6
15 -17 51 -24 78 -60 247 -61 252 -70 455 -7 178 6 357 32 445 47 154 59 187
97 265 117 241 309 404 537 455 41 9 80 18 85 20 26 8 146 3 202 -9z m5103 -3
c0 -17 -30 -102 -59 -170 -17 -39 -37 -96 -45 -125 -19 -66 -32 -107 -96 -288
-28 -80 -63 -179 -77 -220 -14 -41 -31 -81 -38 -88 -32 -35 -165 -6 -165 37 0
9 -6 25 -14 36 -27 41 -49 133 -44 193 3 48 10 67 38 103 28 36 151 180 170
199 3 3 47 52 99 110 141 157 204 220 218 220 7 0 13 -3 13 -7z m-1655 -343
c4 -6 -10 -27 -31 -47 -21 -19 -40 -30 -42 -24 -2 6 -11 11 -19 11 -13 0 -15
-8 -10 -45 4 -27 3 -45 -3 -45 -6 0 -10 4 -10 9 0 14 -42 1 -66 -21 -21 -19
-21 -19 -27 4 -4 13 -4 47 0 76 l6 52 41 0 c22 1 57 9 76 20 39 21 75 25 85
10z m-157 -216 c6 -4 -20 -47 -50 -84 -15 -19 -28 -41 -28 -49 0 -8 -3 -12 -6
-9 -5 5 11 116 21 146 4 11 49 8 63 -4z m1125 -312 c6 -33 -6 -42 -55 -42 -43
0 -43 1 -23 40 24 46 69 48 78 2z m117 18 c0 -5 -9 -10 -20 -10 -11 0 -20 5
-20 10 0 6 9 10 20 10 11 0 20 -4 20 -10z m895 -280 c78 -17 144 -61 184 -121
61 -94 33 -213 -72 -305 -86 -75 -174 -104 -315 -104 -78 0 -107 4 -140 20
-115 56 -171 197 -125 320 51 138 168 212 328 206 44 -1 107 -8 140 -16z
m-961 -674 c48 -74 117 -124 204 -146 40 -10 46 -16 70 -68 28 -64 110 -192
121 -192 11 0 31 -47 24 -54 -4 -3 -22 -6 -42 -6 -36 0 -141 -26 -217 -54 -93
-34 -202 -103 -283 -180 -135 -130 -223 -289 -255 -465 -14 -81 -31 -93 -77
-59 -189 143 -493 172 -713 67 -105 -49 -222 -163 -276 -271 -36 -68 -70 -157
-70 -179 0 -9 -6 -22 -14 -28 -10 -8 -27 0 -77 37 -296 224 -662 238 -1002 38
-26 -15 -53 -26 -60 -23 -6 3 -20 27 -31 53 -48 125 -159 269 -278 361 -152
117 -378 177 -565 152 -49 -7 -104 -13 -123 -13 l-35 -1 -7 80 c-3 44 -15 116
-26 160 l-21 80 38 55 c21 30 49 83 61 118 25 70 38 75 92 42 18 -11 49 -25
68 -30 65 -18 71 -28 75 -116 2 -43 4 -80 4 -81 1 -1 16 4 35 12 53 22 187 47
226 42 62 -8 154 -29 187 -43 17 -8 36 -14 41 -14 16 0 72 -32 100 -57 14 -13
28 -23 33 -23 11 0 122 -118 139 -148 8 -15 27 -43 43 -63 15 -20 27 -44 27
-53 0 -20 31 -76 42 -76 4 0 26 13 50 28 78 52 167 92 204 92 13 0 41 7 61 15
24 10 71 15 149 15 102 0 121 -3 196 -31 46 -17 90 -35 98 -40 8 -5 24 -13 36
-18 11 -5 33 -20 50 -33 70 -58 96 -72 105 -57 5 8 9 27 9 44 0 34 27 113 47
136 7 8 13 20 13 26 0 5 20 31 45 57 25 27 45 51 45 55 0 4 15 15 33 25 17 10
43 29 57 42 25 23 83 47 154 65 61 15 259 5 287 -15 13 -9 33 -16 45 -16 25 0
110 -43 140 -71 27 -26 34 -24 35 9 0 34 31 150 47 179 7 12 12 31 12 42 0 10
3 21 8 23 4 2 25 30 47 63 43 65 142 167 196 202 88 57 252 123 308 123 30 0
41 13 21 25 -14 8 -80 110 -80 122 0 6 -7 13 -15 17 -24 9 3 55 39 65 56 16
64 13 100 -43z m-209 -6 l50 -7 -42 -2 c-28 -1 -51 -9 -70 -25 -18 -15 -48
-26 -83 -31 -30 -4 -68 -13 -84 -21 -34 -16 -62 -18 -71 -4 -3 6 -17 10 -31
10 -21 0 -24 -5 -24 -34 0 -42 -19 -58 -62 -54 -32 3 -33 2 -36 -37 -5 -55
-16 -65 -55 -54 -18 5 -35 9 -39 9 -14 0 -8 -43 8 -61 19 -21 12 -47 -23 -90
-17 -19 -27 -47 -31 -77 -2 -26 -9 -52 -14 -59 -5 -7 -7 -21 -3 -33 9 -27 -3
-60 -21 -60 -8 0 -37 16 -65 35 -28 19 -57 35 -65 35 -7 0 -29 14 -48 30 -32
28 -39 30 -83 24 -42 -5 -98 3 -147 22 -7 3 -30 -9 -51 -26 -21 -16 -47 -30
-58 -30 -11 0 -41 -17 -66 -38 -25 -21 -56 -44 -68 -51 -13 -6 -23 -18 -23
-26 0 -7 -18 -32 -40 -55 -26 -27 -40 -51 -40 -68 0 -56 -10 -72 -43 -69 -39
3 -52 -29 -15 -35 26 -3 37 -36 16 -49 -21 -14 -28 -11 -40 16 -6 13 -23 28
-37 33 -15 5 -48 28 -75 51 -28 24 -57 41 -72 41 -19 0 -28 8 -40 35 -17 40
-41 45 -70 14 -16 -17 -26 -20 -63 -14 -28 4 -51 14 -59 26 -18 26 -47 24 -60
-6 -9 -19 -19 -25 -45 -25 -20 0 -52 -12 -80 -30 -55 -35 -92 -38 -109 -10
-15 23 -48 27 -48 5 0 -8 9 -19 21 -26 21 -11 21 -11 -7 -40 -15 -16 -33 -29
-40 -29 -15 0 -64 64 -87 114 -9 21 -29 54 -45 73 -52 67 -177 181 -203 187
-18 3 -29 13 -33 31 -9 34 -30 41 -60 21 -14 -8 -43 -19 -66 -22 l-42 -7 26
27 c15 14 29 26 31 26 8 0 100 64 165 114 36 27 71 54 78 60 10 7 13 3 10 -18
-3 -32 19 -53 46 -43 24 10 19 44 -9 63 -25 16 -25 17 -8 36 20 22 65 48 85
48 9 0 9 -3 0 -12 -17 -17 -15 -48 4 -55 24 -9 48 21 40 51 -3 14 -13 26 -21
26 -25 0 -17 17 22 49 39 32 64 42 44 17 -8 -10 -9 -21 0 -42 8 -22 8 -49 -1
-109 -16 -105 -6 -149 35 -153 16 -2 35 -12 43 -23 15 -22 52 -26 52 -4 0 8
-5 26 -12 41 -11 23 -10 28 11 45 30 25 47 24 54 -2 7 -24 34 -23 51 3 8 14 6
20 -9 31 -18 14 -18 15 3 26 11 6 34 11 50 11 16 0 51 11 77 26 66 35 107 30
120 -13 12 -41 42 -45 51 -6 5 20 2 30 -15 44 l-22 18 25 7 c15 3 42 3 62 -1
25 -4 41 -2 53 8 9 8 41 25 71 38 30 12 62 27 70 33 31 23 58 35 64 29 3 -4 6
-26 6 -50 l0 -43 50 0 c44 0 50 -3 56 -24 7 -30 33 -41 52 -23 11 11 11 19 3
35 -9 18 -8 23 8 32 11 5 31 10 45 10 14 0 51 11 83 25 72 32 108 30 108 -5 0
-20 5 -25 25 -25 20 0 25 5 26 26 1 38 12 49 47 49 18 0 48 5 67 11 19 5 71
14 115 19 44 5 100 14 125 21 25 6 95 15 155 20 61 5 146 13 190 17 105 11
218 12 280 2z m-3135 -651 c0 -5 -7 -9 -15 -9 -15 0 -20 12 -9 23 8 8 24 -1
24 -14z"/>
<path d="M4490 5495 c0 -9 5 -15 11 -13 6 2 11 8 11 13 0 5 -5 11 -11 13 -6 2
-11 -4 -11 -13z"/>
<path d="M4380 5415 c-10 -12 -9 -16 3 -21 17 -6 37 2 37 16 0 15 -29 19 -40
5z"/>
<path d="M4570 5386 c0 -10 9 -16 21 -16 24 0 21 23 -4 28 -10 2 -17 -3 -17
-12z"/>
<path d="M3902 5349 c2 -6 8 -10 13 -10 5 0 11 4 13 10 2 6 -4 11 -13 11 -9 0
-15 -5 -13 -11z"/>
<path d="M4085 5340 c-8 -14 3 -30 21 -30 8 0 14 9 14 20 0 21 -24 28 -35 10z"/>
<path d="M4277 5334 c-16 -16 -6 -34 19 -34 19 0 25 5 22 17 -3 19 -29 29 -41
17z"/>
<path d="M4467 5323 c-11 -10 -8 -41 4 -49 6 -3 18 1 27 9 13 13 13 19 2 31
-14 17 -23 20 -33 9z"/>
<path d="M4654 5295 c-4 -10 -1 -21 7 -26 20 -12 34 -5 34 17 0 24 -33 31 -41
9z"/>
<path d="M4851 5288 c-9 -24 4 -52 20 -42 12 7 11 51 -1 59 -6 3 -14 -4 -19
-17z"/>
<path d="M3796 5274 c-7 -19 1 -34 19 -34 8 0 16 4 19 9 9 14 -4 41 -19 41 -7
0 -16 -7 -19 -16z"/>
<path d="M3981 5266 c-6 -7 -9 -21 -5 -30 8 -21 40 -21 48 0 8 22 8 22 -13 33
-14 8 -22 7 -30 -3z"/>
<path d="M5030 5251 c0 -15 6 -21 21 -21 25 0 22 33 -4 38 -12 2 -17 -3 -17
-17z"/>
<path d="M4173 5253 c-7 -2 -13 -13 -13 -24 0 -13 7 -19 24 -19 30 0 42 16 26
35 -13 16 -17 17 -37 8z"/>
<path d="M4362 5218 c4 -27 33 -36 42 -13 8 22 -1 35 -25 35 -15 0 -20 -6 -17
-22z"/>
<path d="M4550 5214 c-11 -12 -11 -18 1 -30 13 -12 18 -12 34 0 16 12 17 16 6
30 -17 20 -25 20 -41 0z"/>
<path d="M3690 5195 c-11 -13 -11 -18 2 -31 20 -20 50 -7 46 20 -4 26 -30 32
-48 11z"/>
<path d="M4737 5204 c-14 -15 -6 -43 14 -49 23 -8 41 9 36 35 -2 16 -38 26
-50 14z"/>
<path d="M3872 5163 c2 -10 12 -18 23 -18 11 0 21 8 23 18 3 13 -3 17 -23 17
-20 0 -26 -4 -23 -17z"/>
<path d="M4072 5168 c-16 -16 -15 -45 1 -51 17 -6 47 11 47 28 0 21 -34 37
-48 23z"/>
<path d="M4937 5173 c-12 -11 -8 -23 8 -23 8 0 15 7 15 15 0 16 -12 20 -23 8z"/>
<path d="M5116 5161 c-3 -4 1 -17 9 -27 10 -15 16 -16 26 -7 6 6 9 19 6 27 -7
17 -32 22 -41 7z"/>
<path d="M4253 5144 c-3 -8 2 -23 11 -32 15 -15 17 -15 32 0 21 21 11 48 -16
48 -11 0 -23 -7 -27 -16z"/>
<path d="M5307 5144 c-10 -11 3 -24 24 -24 10 0 19 7 19 15 0 15 -31 21 -43 9z"/>
<path d="M4433 5124 c-8 -21 19 -46 40 -38 9 3 17 17 17 30 0 19 -5 24 -25 24
-14 0 -28 -7 -32 -16z"/>
<path d="M3585 5110 c-7 -11 12 -50 24 -50 5 0 14 7 21 15 10 12 10 18 0 30
-14 17 -36 20 -45 5z"/>
<path d="M4630 5096 c0 -27 22 -40 39 -23 21 21 13 47 -14 47 -20 0 -25 -5
-25 -24z"/>
<path d="M4814 5095 c-7 -17 12 -45 31 -45 19 0 36 25 29 44 -8 20 -53 21 -60
1z"/>
<path d="M3774 5085 c-4 -9 -2 -21 4 -27 16 -16 47 -5 47 17 0 26 -42 34 -51
10z"/>
<path d="M3964 5076 c-9 -24 4 -48 23 -44 12 2 18 12 18 28 0 29 -32 41 -41
16z"/>
<path d="M5010 5076 c0 -19 26 -27 39 -12 13 15 4 26 -21 26 -10 0 -18 -6 -18
-14z"/>
<path d="M4146 5062 c-15 -18 -15 -20 3 -36 37 -33 82 2 51 39 -17 20 -33 19
-54 -3z"/>
<path d="M4340 5039 c-9 -15 -8 -24 1 -35 25 -30 65 -9 55 30 -8 32 -40 35
-56 5z"/>
<path d="M5397 5053 c-11 -10 -8 -41 4 -49 6 -3 18 1 27 9 13 13 13 19 2 31
-14 17 -23 20 -33 9z"/>
<path d="M4532 5038 c-14 -14 -16 -54 -2 -63 5 -3 19 -1 30 5 24 13 27 55 4
64 -20 8 -18 8 -32 -6z"/>
<path d="M3482 5008 c2 -15 11 -24 26 -26 18 -3 22 1 22 22 0 21 -5 26 -26 26
-21 0 -25 -4 -22 -22z"/>
<path d="M4723 5019 c-16 -16 1 -39 29 -39 14 0 19 6 16 22 -3 26 -28 34 -45
17z"/>
<path d="M3670 5006 c-18 -22 -5 -48 22 -44 17 2 23 10 23 28 0 29 -26 38 -45
16z"/>
<path d="M3854 4985 c-8 -20 2 -45 19 -45 24 0 51 26 44 44 -8 20 -56 21 -63
1z"/>
<path d="M3197 4963 c-11 -10 -8 -41 4 -49 6 -3 18 1 27 9 13 13 13 19 2 31
-14 17 -23 20 -33 9z"/>
<path d="M4425 4940 c-6 -20 9 -50 25 -50 10 0 31 50 25 61 -11 17 -44 9 -50
-11z"/>
<path d="M3374 4935 c-8 -20 4 -35 26 -35 25 0 35 17 20 35 -16 19 -39 19 -46
0z"/>
<path d="M3564 4915 c-9 -21 3 -45 21 -45 16 0 36 39 28 53 -8 13 -43 7 -49
-8z"/>
<path d="M3094 4859 c-3 -6 -2 -15 4 -21 13 -13 32 -2 32 18 0 16 -26 19 -36
3z"/>
<path d="M3275 4850 c-4 -7 -3 -16 3 -22 14 -14 47 -6 47 12 0 18 -40 26 -50
10z"/>
<path d="M1688 3687 c-140 -78 -218 -203 -252 -406 -21 -129 -4 -364 35 -491
52 -165 74 -208 129 -262 95 -91 224 -85 333 15 20 18 37 40 37 49 0 15 -65
74 -132 118 -21 14 -40 31 -43 38 -6 17 202 332 220 332 8 0 20 -7 29 -15 19
-20 55 -19 63 1 8 21 -12 262 -25 294 -5 14 -18 52 -27 85 -59 195 -132 275
-250 274 -48 0 -71 -6 -117 -32z m-71 -572 c26 -71 29 -121 9 -128 -10 -4 -16
-24 -18 -54 -2 -26 -7 -47 -13 -47 -12 2 -33 144 -34 232 -1 55 1 63 17 60 11
-2 25 -25 39 -63z"/>
<path d="M5644 2446 c-7 -19 3 -36 21 -36 22 0 26 29 4 40 -15 8 -21 7 -25 -4z"/>
<path d="M5345 2386 c-17 -12 -17 -16 -5 -30 20 -25 55 -16 55 14 0 29 -22 37
-50 16z"/>
<path d="M5543 2373 c-16 -6 -17 -39 -2 -49 16 -9 41 20 33 39 -6 18 -10 19
-31 10z"/>
<path d="M4664 2345 c-6 -16 20 -65 35 -65 4 0 16 9 25 19 15 16 15 22 4 40
-15 24 -56 28 -64 6z"/>
<path d="M5050 2309 c-9 -15 -8 -24 1 -35 14 -18 30 -18 53 -1 15 11 17 17 7
35 -15 28 -47 28 -61 1z"/>
<path d="M5239 2289 c-12 -23 -4 -35 25 -41 22 -4 42 23 33 46 -9 23 -44 20
-58 -5z"/>
<path d="M5430 2286 c-18 -22 -5 -46 25 -46 23 0 26 4 23 27 -3 32 -29 41 -48
19z"/>
<path d="M4567 2274 c-4 -4 -7 -20 -7 -36 0 -25 4 -28 30 -28 34 0 49 23 33
49 -11 17 -44 26 -56 15z"/>
<path d="M4755 2241 c-12 -40 26 -75 53 -47 23 22 8 66 -23 66 -14 0 -26 -7
-30 -19z"/>
<path d="M4945 2230 c-9 -14 3 -47 19 -53 19 -8 35 6 38 33 2 20 -2 26 -24 28
-14 2 -29 -2 -33 -8z"/>
<path d="M5134 2205 c-4 -9 0 -23 9 -32 21 -21 49 -9 45 19 -4 28 -45 38 -54
13z"/>
<path d="M4280 2190 c-9 -16 -8 -25 1 -36 26 -32 84 0 62 34 -16 26 -50 27
-63 2z"/>
<path d="M5337 2203 c-4 -3 -7 -17 -7 -30 0 -20 5 -24 22 -21 26 3 37 36 16
49 -16 11 -23 11 -31 2z"/>
<path d="M4471 2186 c-21 -25 -10 -61 18 -61 31 0 50 28 35 53 -15 23 -38 26
-53 8z"/>
<path d="M4657 2173 c-13 -12 -7 -51 9 -57 25 -10 33 -7 45 16 10 18 8 24 -7
35 -20 14 -37 17 -47 6z"/>
<path d="M5516 2172 c-9 -14 21 -35 40 -28 8 3 14 12 12 19 -6 15 -44 22 -52
9z"/>
<path d="M3618 2156 c-38 -28 -14 -62 30 -43 24 11 28 27 10 45 -15 15 -19 15
-40 -2z"/>
<path d="M3805 2146 c-24 -17 -15 -50 14 -54 39 -6 56 39 22 57 -13 7 -23 6
-36 -3z"/>
<path d="M4849 2144 c-17 -21 0 -49 32 -49 29 0 36 26 14 49 -20 20 -29 20
-46 0z"/>
<path d="M5040 2125 c-17 -20 -5 -45 20 -45 11 0 23 7 26 15 6 15 -11 45 -26
45 -4 0 -13 -7 -20 -15z"/>
<path d="M4167 2106 c-14 -35 23 -67 50 -45 8 7 13 22 11 33 -4 26 -52 35 -61
12z"/>
<path d="M5231 2106 c-16 -19 -6 -36 20 -36 15 0 20 6 17 22 -4 27 -21 33 -37
14z"/>
<path d="M4364 2086 c-10 -26 4 -48 28 -44 17 2 23 10 23 28 0 18 -6 26 -23
28 -13 2 -25 -3 -28 -12z"/>
<path d="M5423 2084 c-8 -21 13 -42 28 -27 13 13 5 43 -11 43 -6 0 -13 -7 -17
-16z"/>
<path d="M4557 2074 c-12 -13 -8 -42 8 -48 25 -9 46 5 43 28 -3 21 -37 34 -51
20z"/>
<path d="M4746 2057 c-21 -16 -12 -47 15 -47 24 0 42 33 27 48 -15 15 -20 15
-42 -1z"/>
<path d="M3693 2044 c-3 -8 1 -23 10 -31 13 -13 19 -14 31 -3 9 7 16 21 16 31
0 24 -48 26 -57 3z"/>
<path d="M3885 2040 c-14 -16 -15 -22 -5 -35 28 -34 77 -4 53 33 -15 24 -28
24 -48 2z"/>
<path d="M4935 2029 c-9 -27 14 -44 34 -24 16 16 8 45 -13 45 -8 0 -18 -10
-21 -21z"/>
<path d="M4074 2016 c-10 -26 4 -48 28 -44 17 2 23 10 23 28 0 18 -6 26 -23
28 -13 2 -25 -3 -28 -12z"/>
<path d="M4272 2008 c-16 -16 -15 -33 3 -48 20 -17 47 5 43 34 -4 24 -28 32
-46 14z"/>
<path d="M4450 1985 c-18 -21 -5 -45 25 -45 14 0 28 7 31 15 7 17 -12 45 -31
45 -7 0 -18 -7 -25 -15z"/>
<path d="M5515 1979 c-4 -6 -5 -13 -2 -16 7 -7 27 6 27 18 0 12 -17 12 -25 -2z"/>
<path d="M4644 1965 c-8 -21 2 -45 19 -45 8 0 20 7 27 15 10 12 10 18 0 30 -7
8 -19 15 -27 15 -7 0 -16 -7 -19 -15z"/>
<path d="M3793 1953 c-18 -7 -16 -42 3 -50 8 -3 23 1 31 10 13 13 14 19 3 31
-13 17 -17 18 -37 9z"/>
<path d="M4826 1945 c-9 -24 1 -35 30 -35 21 0 25 4 22 23 -4 27 -42 36 -52
12z"/>
<path d="M3970 1920 c0 -25 25 -36 45 -20 20 16 7 40 -21 40 -17 0 -24 -6 -24
-20z"/>
<path d="M4160 1915 c-10 -12 -10 -18 0 -30 7 -8 18 -15 25 -15 7 0 18 7 25
15 10 12 10 18 0 30 -7 8 -18 15 -25 15 -7 0 -18 -7 -25 -15z"/>
<path d="M4351 1897 c-17 -21 -3 -49 23 -45 15 2 21 10 21 28 0 28 -26 38 -44
17z"/>
<path d="M4547 1883 c-11 -10 -8 -41 4 -49 16 -9 43 21 36 40 -7 16 -28 21
-40 9z"/>
<path d="M4733 1854 c-3 -8 -1 -20 5 -26 16 -16 42 -2 42 22 0 24 -38 28 -47
4z"/>
<path d="M3881 1846 c-16 -19 -6 -36 20 -36 15 0 20 6 17 22 -4 27 -21 33 -37
14z"/>
<path d="M4061 1826 c-16 -19 -6 -36 20 -36 15 0 20 6 17 22 -4 27 -21 33 -37
14z"/>
<path d="M4624 1775 c-8 -19 3 -35 26 -35 19 0 30 17 23 38 -6 17 -42 15 -49
-3z"/>
<path d="M4370 6675 c0 -8 5 -15 10 -15 6 0 10 7 10 15 0 8 -4 15 -10 15 -5 0
-10 -7 -10 -15z"/>
<path d="M4875 6640 c-3 -6 1 -13 10 -16 19 -8 30 0 20 15 -8 14 -22 14 -30 1z"/>
<path d="M5122 6609 c2 -6 8 -10 13 -10 5 0 11 4 13 10 2 6 -4 11 -13 11 -9 0
-15 -5 -13 -11z"/>
<path d="M3977 6594 c-14 -14 -7 -35 11 -32 9 2 17 10 17 17 0 16 -18 25 -28
15z"/>
<path d="M4220 6562 c0 -24 8 -32 26 -25 22 8 17 43 -6 43 -13 0 -20 -7 -20
-18z"/>
<path d="M4987 6513 c-15 -14 -7 -43 12 -43 24 0 33 13 25 34 -6 16 -25 21
-37 9z"/>
<path d="M3590 6500 c-12 -7 -12 -12 -2 -22 9 -9 15 -9 24 0 16 16 -2 34 -22
22z"/>
<path d="M5236 6483 c-4 -9 -1 -23 7 -30 12 -12 16 -12 26 1 16 19 8 46 -13
46 -7 0 -17 -8 -20 -17z"/>
<path d="M3830 6464 c0 -33 33 -30 38 4 3 17 -2 22 -17 22 -16 0 -21 -6 -21
-26z"/>
<path d="M4073 6454 c-8 -20 21 -49 41 -41 9 4 16 18 16 32 0 20 -5 25 -25 25
-14 0 -28 -7 -32 -16z"/>
<path d="M5490 6456 c0 -8 4 -17 8 -20 13 -8 35 11 28 23 -10 16 -36 14 -36
-3z"/>
<path d="M3195 6401 c-7 -12 12 -24 25 -16 11 7 4 25 -10 25 -5 0 -11 -4 -15
-9z"/>
<path d="M5103 6383 c-18 -7 -16 -52 2 -59 18 -7 45 12 45 32 0 16 -30 33 -47
27z"/>
<path d="M5353 6353 c-18 -7 -16 -28 3 -43 12 -11 18 -10 31 3 28 27 4 56 -34
40z"/>
<path d="M3055 6290 c-7 -12 2 -30 16 -30 12 0 12 27 0 35 -5 3 -12 1 -16 -5z"/>
<path d="M5203 6234 c-6 -17 6 -45 23 -51 21 -7 47 23 40 45 -9 27 -53 30 -63
6z"/>
<path d="M2914 6169 c-8 -14 11 -33 25 -25 16 10 13 36 -3 36 -8 0 -18 -5 -22
-11z"/>
<path d="M3156 6154 c-9 -22 17 -49 39 -40 10 3 15 15 13 28 -4 29 -42 37 -52
12z"/>
<path d="M5972 6153 c4 -22 43 -25 43 -3 0 8 -11 16 -23 18 -19 3 -23 0 -20
-15z"/>
<path d="M6232 6128 c6 -18 28 -21 28 -4 0 9 -7 16 -16 16 -9 0 -14 -5 -12
-12z"/>
<path d="M2774 6055 c-7 -18 3 -35 21 -35 15 0 28 27 19 41 -8 14 -34 11 -40
-6z"/>
<path d="M3031 6051 c-15 -10 -11 -53 5 -58 13 -4 44 23 44 37 0 15 -35 29
-49 21z"/>
<path d="M6087 6033 c-4 -3 -7 -15 -7 -25 0 -20 44 -26 55 -8 14 22 -30 52
-48 33z"/>
<path d="M6350 5990 c0 -13 5 -20 13 -17 6 2 12 10 12 17 0 7 -6 15 -12 18 -8
2 -13 -5 -13 -18z"/>
<path d="M2634 5945 c-7 -18 3 -35 21 -35 18 0 26 25 12 39 -15 15 -27 14 -33
-4z"/>
<path d="M2882 5928 c-15 -15 3 -48 28 -48 19 0 36 32 25 50 -8 14 -38 13 -53
-2z"/>
<path d="M6200 5876 c0 -14 4 -27 9 -30 18 -11 41 6 41 30 0 19 -5 24 -25 24
-20 0 -25 -5 -25 -24z"/>
<path d="M6460 5856 c0 -15 24 -28 34 -19 13 14 5 33 -14 33 -11 0 -20 -6 -20
-14z"/>
<path d="M2502 5818 c2 -13 10 -23 18 -23 8 0 16 10 18 23 3 17 -2 22 -18 22
-16 0 -21 -5 -18 -22z"/>
<path d="M2752 5818 c-16 -16 -15 -33 2 -47 30 -25 67 16 40 44 -19 18 -26 19
-42 3z"/>
<path d="M1646 5798 c-3 -7 -7 -32 -9 -55 -5 -46 -17 -62 -63 -86 -62 -32 -62
-43 0 -74 57 -28 60 -31 71 -96 9 -55 32 -59 72 -12 33 38 35 39 94 37 33 -1
64 0 69 3 6 3 -1 28 -15 55 -30 60 -30 65 -5 115 33 64 29 68 -45 60 -65 -7
-66 -6 -105 29 -42 38 -58 44 -64 24z"/>
<path d="M6310 5751 c-7 -15 -6 -23 6 -35 19 -19 26 -20 42 -4 17 17 15 45 -4
52 -25 10 -33 7 -44 -13z"/>
<path d="M6583 5733 c-17 -6 -16 -30 1 -36 21 -8 40 17 24 30 -7 6 -19 8 -25
6z"/>
<path d="M7464 5578 c-183 -229 -187 -247 -29 -132 39 28 105 75 147 105 43
30 78 59 78 64 0 14 -73 85 -87 85 -7 0 -56 -55 -109 -122z"/>
<path d="M2220 5585 c0 -11 7 -15 23 -13 12 2 22 8 22 13 0 6 -10 11 -22 13
-16 2 -23 -2 -23 -13z"/>
<path d="M2094 5476 c-8 -22 3 -33 18 -18 9 9 9 15 0 24 -9 9 -13 7 -18 -6z"/>
<path d="M1956 5363 c-11 -11 -6 -23 9 -23 8 0 15 4 15 9 0 13 -16 22 -24 14z"/>
<path d="M2197 5353 c-13 -12 -7 -44 9 -50 20 -7 45 22 37 43 -5 14 -35 19
-46 7z"/>
<path d="M7765 5258 c-225 -94 -219 -91 -214 -103 5 -11 60 -8 169 10 47 8
121 19 165 25 126 18 125 17 109 99 -12 57 -25 55 -229 -31z"/>
<path d="M6924 5316 c-9 -24 3 -47 21 -40 18 7 16 45 -2 52 -7 2 -16 -3 -19
-12z"/>
<path d="M1150 5234 c-22 -20 -40 -44 -40 -54 0 -10 28 -36 68 -63 37 -25 109
-75 161 -111 140 -97 139 -83 -4 94 -33 41 -74 94 -90 117 -17 23 -36 45 -43
47 -7 3 -30 -11 -52 -30z"/>
<path d="M2060 5221 c0 -27 19 -36 37 -18 18 18 9 37 -18 37 -12 0 -19 -7 -19
-19z"/>
<path d="M7040 5166 c0 -8 4 -17 9 -20 11 -7 33 18 24 27 -12 12 -33 7 -33 -7z"/>
<path d="M1922 5103 c2 -10 12 -18 23 -18 11 0 21 8 23 18 3 13 -3 17 -23 17
-20 0 -26 -4 -23 -17z"/>
<path d="M6894 5066 c-14 -36 13 -57 46 -36 12 7 12 13 4 27 -15 24 -43 28
-50 9z"/>
<path d="M1790 4985 c0 -8 7 -15 15 -15 8 0 15 7 15 15 0 8 -7 15 -15 15 -8 0
-15 -7 -15 -15z"/>
<path d="M2037 4994 c-13 -13 -7 -52 8 -58 27 -10 46 5 43 33 -3 26 -35 41
-51 25z"/>
<path d="M776 4863 c-16 -57 -17 -101 -2 -106 21 -8 189 -25 330 -32 157 -9
151 5 -30 68 -76 26 -165 56 -196 67 -71 25 -95 25 -102 3z"/>
<path d="M7655 2398 c11 -6 22 -14 25 -18 3 -4 64 -38 135 -75 72 -37 154 -81
184 -96 30 -16 60 -29 68 -29 13 0 53 78 53 105 0 20 -38 30 -369 104 -107 24
-125 25 -96 9z"/>
<path d="M7047 2383 c-4 -3 -7 -17 -7 -30 0 -16 6 -23 20 -23 25 0 36 25 20
45 -14 16 -23 19 -33 8z"/>
<path d="M7290 2348 c0 -18 312 -328 330 -328 17 0 72 65 74 88 1 10 -68 57
-194 133 -107 65 -198 118 -202 119 -5 0 -8 -5 -8 -12z"/>
<path d="M6901 2257 c-18 -23 -2 -49 28 -45 20 2 26 8 26 28 0 29 -34 40 -54
17z"/>
<path d="M7160 2220 c0 -5 7 -10 15 -10 8 0 15 5 15 10 0 6 -7 10 -15 10 -8 0
-15 -4 -15 -10z"/>
<path d="M7020 2105 c0 -21 30 -31 40 -14 11 17 3 29 -21 29 -10 0 -19 -7 -19
-15z"/>
<path d="M6884 1995 c-8 -19 12 -36 33 -28 19 7 12 37 -10 41 -9 2 -20 -4 -23
-13z"/>
<path d="M6744 1885 c-7 -17 2 -45 14 -45 4 0 17 6 27 14 16 12 17 16 6 30
-17 20 -40 21 -47 1z"/>
<path d="M6346 1798 c-21 -30 -4 -60 32 -56 34 4 44 45 16 65 -24 18 -30 17
-48 -9z"/>
<path d="M2157 1783 c-4 -3 -7 -15 -7 -25 0 -26 24 -17 28 10 3 21 -8 29 -21
15z"/>
<path d="M6602 1773 c-13 -26 -4 -43 23 -43 13 0 25 6 28 13 6 17 -11 47 -28
47 -8 0 -18 -8 -23 -17z"/>
<path d="M6467 1656 c-10 -26 4 -47 27 -44 15 2 21 10 21 28 0 29 -38 41 -48
16z"/>
<path d="M2260 1625 c0 -8 9 -15 20 -15 11 0 20 7 20 15 0 8 -9 15 -20 15 -11
0 -20 -7 -20 -15z"/>
<path d="M6732 1633 c-15 -6 -6 -23 14 -23 8 0 14 7 14 15 0 15 -6 17 -28 8z"/>
<path d="M6324 1535 c-10 -25 4 -47 28 -43 17 2 24 11 26 31 3 23 0 27 -23 27
-14 0 -28 -7 -31 -15z"/>
<path d="M6592 1504 c4 -21 22 -23 26 -1 2 10 -3 17 -13 17 -10 0 -15 -6 -13
-16z"/>
<path d="M2380 1485 c0 -8 7 -15 15 -15 8 0 15 7 15 15 0 8 -7 15 -15 15 -8 0
-15 -7 -15 -15z"/>
<path d="M6190 1425 c-10 -13 -9 -19 5 -36 19 -20 19 -20 39 0 16 17 17 23 6
35 -16 20 -34 20 -50 1z"/>
<path d="M1825 1385 c-16 -8 -70 -28 -120 -46 -177 -62 -225 -81 -231 -90 -3
-5 7 -32 22 -60 20 -37 33 -49 45 -46 25 7 369 238 369 248 0 13 -51 10 -85
-6z"/>
<path d="M6447 1394 c-10 -11 3 -24 24 -24 10 0 19 7 19 15 0 15 -31 21 -43 9z"/>
<path d="M6638 1330 c-23 -26 -33 -30 -77 -30 -28 0 -51 -4 -51 -9 0 -6 9 -26
21 -46 20 -34 20 -37 5 -76 -9 -22 -14 -45 -10 -50 3 -6 24 -7 49 -3 37 5 49
2 78 -20 46 -36 57 -33 57 13 0 32 6 44 31 65 17 14 35 26 40 26 5 0 9 8 9 18
0 13 -13 24 -39 34 -35 14 -40 21 -48 59 -11 54 -29 59 -65 19z"/>
<path d="M2985 1319 c-10 -30 19 -53 47 -38 29 15 20 53 -14 57 -20 2 -28 -2
-33 -19z"/>
<path d="M6315 1281 c-8 -15 3 -31 21 -31 9 0 14 7 12 17 -4 20 -24 28 -33 14z"/>
<path d="M2084 1253 c-10 -16 -23 -36 -29 -45 -5 -10 -49 -82 -97 -160 -48
-79 -90 -151 -93 -160 -5 -12 4 -22 34 -37 58 -30 89 -28 97 7 3 15 11 45 19
67 7 22 27 87 44 145 18 58 39 123 47 145 24 69 12 89 -22 38z"/>
<path d="M5412 1254 c-29 -20 -28 -52 2 -65 53 -25 89 35 41 67 -18 12 -24 11
-43 -2z"/>
<path d="M5653 1214 c-8 -22 10 -49 32 -49 22 0 40 27 32 49 -8 21 -56 21 -64
0z"/>
<path d="M2860 1210 c-12 -7 -12 -13 -4 -27 16 -26 39 -22 39 6 0 27 -13 35
-35 21z"/>
<path d="M3110 1185 c-12 -15 -5 -55 10 -55 23 0 40 14 40 35 0 13 -7 26 -16
29 -21 8 -20 8 -34 -9z"/>
<path d="M3360 1165 c-26 -31 18 -71 47 -42 19 19 8 57 -16 57 -10 0 -24 -7
-31 -15z"/>
<path d="M6176 1163 c-9 -22 10 -41 25 -26 13 13 5 43 -10 43 -5 0 -12 -8 -15
-17z"/>
<path d="M5261 1126 c-20 -24 4 -58 37 -54 23 2 27 8 27 33 0 25 -4 31 -26 33
-14 2 -31 -4 -38 -12z"/>
<path d="M5525 1104 c-18 -18 -16 -33 7 -47 35 -22 66 21 36 51 -16 16 -23 15
-43 -4z"/>
<path d="M5780 1066 c0 -31 12 -39 34 -23 21 16 11 47 -15 47 -13 0 -19 -7
-19 -24z"/>
<path d="M2975 1060 c-8 -12 20 -24 35 -15 6 3 8 11 5 16 -8 12 -32 12 -40 -1z"/>
<path d="M3232 1048 c-16 -16 -15 -35 1 -41 20 -8 39 8 35 28 -4 23 -20 29
-36 13z"/>
<path d="M6047 1046 c-6 -15 1 -26 15 -26 4 0 8 9 8 20 0 23 -15 27 -23 6z"/>
<path d="M5123 1004 c-16 -41 46 -73 67 -34 9 16 8 25 -1 36 -16 19 -58 18
-66 -2z"/>
<path d="M2540 980 c-6 -12 -22 -25 -36 -30 -27 -11 -30 -26 -9 -54 8 -11 15
-29 15 -41 0 -20 5 -21 57 -20 57 2 57 2 59 34 1 18 7 38 13 44 18 18 13 26
-24 41 -19 8 -38 22 -41 31 -8 21 -21 19 -34 -5z"/>
<path d="M5385 980 c-8 -26 1 -40 26 -40 25 0 35 25 19 45 -17 21 -37 19 -45
-5z"/>
<path d="M4232 968 c-19 -19 -14 -46 9 -59 18 -9 25 -7 41 9 17 17 18 22 7 41
-15 23 -39 27 -57 9z"/>
<path d="M5644 955 c-4 -9 -2 -21 4 -27 15 -15 44 -1 40 19 -4 23 -36 29 -44
8z"/>
<path d="M5910 920 c0 -19 3 -21 12 -12 9 9 9 15 0 24 -9 9 -12 7 -12 -12z"/>
<path d="M3090 910 c0 -5 7 -10 15 -10 8 0 15 5 15 10 0 6 -7 10 -15 10 -8 0
-15 -4 -15 -10z"/>
<path d="M3344 906 c-7 -19 3 -36 22 -36 10 0 14 8 12 22 -4 26 -26 36 -34 14z"/>
<path d="M5002 898 c-16 -16 -15 -33 4 -48 22 -19 54 12 38 37 -14 22 -27 26
-42 11z"/>
<path d="M5251 866 c-17 -20 -6 -36 25 -36 21 0 25 4 22 22 -4 27 -30 35 -47
14z"/>
<path d="M4099 839 c-14 -26 8 -53 34 -43 20 7 22 35 5 52 -17 17 -26 15 -39
-9z"/>
<path d="M5516 853 c-12 -12 -6 -43 9 -43 8 0 15 9 15 19 0 21 -13 34 -24 24z"/>
<path d="M4350 806 c0 -24 23 -41 41 -30 5 3 9 16 9 30 0 19 -5 24 -25 24 -20
0 -25 -5 -25 -24z"/>
<path d="M4603 794 c-3 -8 2 -23 11 -32 15 -15 17 -15 33 0 13 14 14 20 3 32
-16 20 -39 20 -47 0z"/>
<path d="M3467 764 c-8 -8 1 -24 14 -24 5 0 9 7 9 15 0 15 -12 20 -23 9z"/>
<path d="M5122 738 c2 -13 8 -23 13 -23 6 0 11 10 13 23 2 15 -2 22 -13 22
-11 0 -15 -7 -13 -22z"/>
<path d="M3966 715 c-3 -9 1 -18 10 -22 19 -7 39 11 30 26 -10 16 -33 13 -40
-4z"/>
<path d="M4220 691 c0 -11 4 -22 9 -25 12 -8 34 21 26 34 -11 17 -35 11 -35
-9z"/>
<path d="M5906 695 c-3 -8 -17 -20 -31 -25 -28 -11 -32 -31 -10 -50 8 -7 15
-23 15 -37 0 -23 2 -24 58 -21 54 3 57 4 57 30 1 14 7 33 14 42 17 20 7 46
-17 46 -11 0 -25 7 -32 15 -16 19 -46 19 -54 0z"/>
<path d="M4465 670 c-11 -18 13 -36 31 -25 9 6 16 15 17 20 3 14 -40 18 -48 5z"/>
<path d="M4730 640 c0 -11 7 -20 15 -20 8 0 15 9 15 20 0 11 -7 20 -15 20 -8
0 -15 -9 -15 -20z"/>
</g>
</svg>
